<mxfile host="65bd71144e">
    <diagram id="hBJc1IrnC1_0K3ayS9hF" name="第 1 页">
        <mxGraphModel dx="832" dy="571" grid="1" gridSize="10" guides="1" tooltips="1" connect="1" arrows="1" fold="1" page="1" pageScale="1" pageWidth="827" pageHeight="1169" math="0" shadow="0">
            <root>
                <mxCell id="0"/>
                <mxCell id="1" parent="0"/>
                <mxCell id="5" value="" style="endArrow=classic;html=1;rounded=1;startSize=5;endSize=7;targetPerimeterSpacing=1;jumpStyle=line;startArrow=none;" edge="1" parent="1" source="6">
                    <mxGeometry width="50" height="50" relative="1" as="geometry">
                        <mxPoint x="140" y="470" as="sourcePoint"/>
                        <mxPoint x="770" y="470" as="targetPoint"/>
                    </mxGeometry>
                </mxCell>
                <mxCell id="7" value="" style="endArrow=none;html=1;rounded=1;startSize=5;endSize=7;sourcePerimeterSpacing=2;jumpStyle=line;" edge="1" parent="1" target="6">
                    <mxGeometry width="50" height="50" relative="1" as="geometry">
                        <mxPoint x="140" y="470" as="sourcePoint"/>
                        <mxPoint x="690" y="470" as="targetPoint"/>
                    </mxGeometry>
                </mxCell>
                <mxCell id="6" value="" style="shape=waypoint;sketch=0;fillStyle=solid;size=6;pointerEvents=1;points=[];fillColor=none;resizable=0;rotatable=0;perimeter=centerPerimeter;snapToPoint=1;" vertex="1" parent="1">
                    <mxGeometry x="470" y="460" width="20" height="20" as="geometry"/>
                </mxCell>
                <mxCell id="8" value="" style="edgeStyle=segmentEdgeStyle;endArrow=classic;html=1;curved=0;rounded=0;endSize=8;startSize=8;sourcePerimeterSpacing=2;targetPerimeterSpacing=1;jumpStyle=line;exitX=0.56;exitY=-0.04;exitDx=0;exitDy=0;exitPerimeter=0;" edge="1" parent="1" source="6">
                    <mxGeometry width="50" height="50" relative="1" as="geometry">
                        <mxPoint x="390" y="520" as="sourcePoint"/>
                        <mxPoint x="680" y="420" as="targetPoint"/>
                        <Array as="points">
                            <mxPoint x="480" y="420"/>
                        </Array>
                    </mxGeometry>
                </mxCell>
                <mxCell id="11" value="" style="shape=waypoint;sketch=0;fillStyle=solid;size=6;pointerEvents=1;points=[];fillColor=none;resizable=0;rotatable=0;perimeter=centerPerimeter;snapToPoint=1;" vertex="1" parent="1">
                    <mxGeometry x="380" y="460" width="20" height="20" as="geometry"/>
                </mxCell>
                <mxCell id="13" value="" style="edgeStyle=segmentEdgeStyle;endArrow=classic;html=1;curved=0;rounded=0;endSize=8;startSize=8;sourcePerimeterSpacing=2;targetPerimeterSpacing=1;jumpStyle=line;exitX=0.74;exitY=0.48;exitDx=0;exitDy=0;exitPerimeter=0;" edge="1" parent="1" source="11">
                    <mxGeometry width="50" height="50" relative="1" as="geometry">
                        <mxPoint x="390" y="520" as="sourcePoint"/>
                        <mxPoint x="720" y="370" as="targetPoint"/>
                        <Array as="points">
                            <mxPoint x="390" y="370"/>
                            <mxPoint x="720" y="370"/>
                        </Array>
                    </mxGeometry>
                </mxCell>
                <mxCell id="14" value="&lt;font style=&quot;font-size: 18px;&quot;&gt;2.5&lt;/font&gt;" style="text;strokeColor=none;fillColor=none;html=1;fontSize=24;fontStyle=1;verticalAlign=middle;align=center;strokeWidth=0;" vertex="1" parent="1">
                    <mxGeometry x="340" y="470" width="100" height="40" as="geometry"/>
                </mxCell>
                <mxCell id="15" value="&lt;font style=&quot;font-size: 18px;&quot;&gt;2.75&lt;/font&gt;" style="text;strokeColor=none;fillColor=none;html=1;fontSize=24;fontStyle=1;verticalAlign=middle;align=center;strokeWidth=0;" vertex="1" parent="1">
                    <mxGeometry x="430" y="470" width="100" height="40" as="geometry"/>
                </mxCell>
                <mxCell id="18" style="edgeStyle=none;rounded=1;jumpStyle=line;html=1;exitX=1;exitY=1;exitDx=0;exitDy=0;fontSize=18;startArrow=oval;startFill=0;startSize=5;endSize=7;sourcePerimeterSpacing=2;targetPerimeterSpacing=1;entryX=1;entryY=1;entryDx=0;entryDy=0;" edge="1" parent="1" source="17" target="17">
                    <mxGeometry relative="1" as="geometry">
                        <mxPoint x="790" y="470" as="targetPoint"/>
                    </mxGeometry>
                </mxCell>
                <mxCell id="17" value="" style="rounded=1;whiteSpace=wrap;html=1;strokeWidth=0;fillWeight=4;hachureGap=8;hachureAngle=45;fillColor=#1ba1e2;sketch=1;fontSize=18;" vertex="1" parent="1">
                    <mxGeometry x="480" y="430" width="200" height="40" as="geometry"/>
                </mxCell>
            </root>
        </mxGraphModel>
    </diagram>
</mxfile>